# xmcd CD database file
#
# Track frame offsets:
#	150
#	18522
#	34705
#	46369
#	63618
#	78185
#	96524
#	112651
#	132259
#	150919
#	167169
#	186946
#	209311
#	226889
#	242784
#	260049
#	276005
#	293121
#	310078
#	322320
#
# Disc length: 4478 seconds
#
# Revision: 0
# Processed by: cddbd v1.5.2PL0 Copyright (c) Steve Scherf et al.
# Submitted via: CDex 1.70beta2
#
DISCID=19117c14
DTITLE=Travis Tritt - Greatest Hits
DYEAR=1900
DGENRE=Country
TTITLE0=It's A Great Day To Be Alive
TTITLE1=ake It Easy
TTITLE2=Here's A Quarter (Call Someone
TTITLE3=Anymore
TTITLE4=Country Club
TTITLE5=Help Me Hold On
TTITLE6=Where Corn Don't Grow
TTITLE7=Best Of Intentions
TTITLE8=I'm Gonna Be Somebody
TTITLE9=Can I Trust You With My Heart
TTITLE10=Foolish Pride
TTITLE11=Lord Have Mercy On The Working
TTITLE12=Nothing Short Of Dying
TTITLE13=More Than You'll Ever Know
TTITLE14=Sometimes She Forgets
TTITLE15=his Ones Gonna Hurt You (For
TTITLE16=Tell Me I Was Dreaming
TTITLE17=Drift Off To Dream
TTITLE18=he Whiskey Ain't Working (Due
TTITLE19=T-R-O-U-B-L-E
EXTD=
EXTT0=
EXTT1=
EXTT2=
EXTT3=
EXTT4=
EXTT5=
EXTT6=
EXTT7=
EXTT8=
EXTT9=
EXTT10=
EXTT11=
EXTT12=
EXTT13=
EXTT14=
EXTT15=
EXTT16=
EXTT17=
EXTT18=
EXTT19=
PLAYORDER=
